<svg width="124" height="120" viewBox="0 0 124 120" fill="none" xmlns="http://www.w3.org/2000/svg">
<path d="M24.13 22.6312L10.2366 10.1737C9.94548 9.91272 9.48533 9.94767 9.24945 10.2644C6.43569 14.0163 7.19926 19.6401 11.1245 23.1596C15.0497 26.6792 20.722 26.8284 24.1471 23.6223C24.4351 23.3523 24.4211 22.8922 24.13 22.6312Z" fill="white"/>
<path d="M96.0614 107.661L109.955 120.119C110.246 120.38 110.706 120.345 110.942 120.028C113.756 116.276 112.992 110.652 109.067 107.133C105.142 103.613 99.4694 103.464 96.0444 106.67C95.7564 106.94 95.7703 107.4 96.0614 107.661Z" fill="white"/>
<path d="M111.737 46.8011L97.288 34.9925C96.9852 34.7451 96.5272 34.801 96.306 35.1283C93.6669 39.005 94.6871 44.5879 98.7693 47.9241C102.851 51.2603 108.525 51.1498 111.799 47.7904C112.075 47.5074 112.04 47.0485 111.737 46.8011Z" fill="white"/>
<path d="M18.0077 87.881L31.1501 74.6335C31.4254 74.356 31.4137 73.8947 31.1092 73.6431C27.504 70.6437 21.8489 71.1227 18.1359 74.8654C14.4229 78.6082 13.9878 84.2657 17.017 87.8481C17.2722 88.1493 17.7324 88.1586 18.0077 87.881Z" fill="white"/>
<path d="M15.2126 57.7303C12.4728 58.0212 9.77868 53.8017 9.19499 48.3058C8.61131 42.8098 10.3591 38.1186 13.0989 37.8276C15.8386 37.5367 18.5327 41.7561 19.1164 47.2521C19.7001 52.7481 17.9523 57.4393 15.2126 57.7303Z" fill="white"/>
<path d="M106.567 67.2067C109.306 66.9158 112.001 71.1353 112.584 76.6312C113.168 82.1272 111.42 86.8184 108.68 87.1094C105.941 87.4004 103.247 83.1809 102.663 77.6849C102.079 72.1889 103.827 67.4977 106.567 67.2067Z" fill="white"/>
<path d="M76.6911 15.2079C78.4728 16.4886 77.302 21.1648 74.0761 25.6526C70.8502 30.1403 66.7908 32.7402 65.0091 31.4595C63.2275 30.1788 64.3983 25.5026 67.6242 21.0148C70.8501 16.5271 74.9095 13.9272 76.6911 15.2079Z" fill="white"/>
<path d="M50.1797 91.4722C47.9984 91.2347 46.7151 86.588 47.3135 81.0937C47.9118 75.5993 50.1651 71.3377 52.3464 71.5753C54.5276 71.8128 55.8109 76.4594 55.2125 81.9538C54.6142 87.4482 52.3609 91.7097 50.1797 91.4722Z" fill="white"/>
<path fill-rule="evenodd" clip-rule="evenodd" d="M51.3372 44.5939C52.2499 45.8701 51.9544 47.6421 50.6772 48.5517C47.801 50.6002 43.9305 51.2084 40.2645 50.0173C36.5985 48.8261 33.8253 46.0586 32.7024 42.7117C32.2037 41.2251 33.006 39.6178 34.4944 39.1216C35.9829 38.6254 37.5938 39.4284 38.0926 40.915C38.6225 42.4943 40.0049 43.9666 42.0179 44.6207C44.0317 45.275 46.0154 44.8964 47.372 43.9302C48.6492 43.0206 50.4245 43.3177 51.3372 44.5939Z" fill="white"/>
<path fill-rule="evenodd" clip-rule="evenodd" d="M72.1247 79.5169C71.212 78.2407 71.5075 76.4688 72.7847 75.5591C75.6609 73.5106 79.5315 72.9024 83.1974 74.0935C86.8634 75.2847 89.6366 78.0522 90.7595 81.3991C91.2583 82.8857 90.456 84.4931 88.9675 84.9892C87.479 85.4854 85.8681 84.6825 85.3693 83.1959C84.8394 81.6165 83.457 80.1442 81.444 79.4901C79.4303 78.8358 77.4465 79.2144 76.0899 80.1806C74.8127 81.0903 73.0374 80.7931 72.1247 79.5169Z" fill="white"/>
<path fill-rule="evenodd" clip-rule="evenodd" d="M100.515 12.4119C100.264 10.8631 101.316 9.4068 102.864 9.15916C106.351 8.6015 110.089 9.77595 112.844 12.4715C115.599 15.1672 116.855 18.8785 116.374 22.3759C116.16 23.9294 114.728 25.013 113.174 24.7964C111.62 24.5797 110.533 23.1447 110.747 21.5913C110.973 19.941 110.389 18.0078 108.876 16.5276C107.362 15.0469 105.417 14.5048 103.772 14.7679C102.224 15.0155 100.766 13.9607 100.515 12.4119Z" fill="white"/>
<path fill-rule="evenodd" clip-rule="evenodd" d="M56.4382 111.232C57.5476 112.342 57.5462 114.138 56.4352 115.245C53.9333 117.736 50.2145 118.97 46.403 118.395C42.5915 117.821 39.4025 115.545 37.7468 112.427C37.0113 111.042 37.5396 109.325 38.9267 108.592C40.3138 107.858 42.0345 108.387 42.77 109.772C43.5513 111.243 45.1562 112.469 47.2491 112.785C49.3428 113.1 51.2378 112.402 52.4179 111.227C53.5289 110.12 55.3289 110.123 56.4382 111.232Z" fill="white"/>
<path d="M39.721 14.7413C38.9814 13.6386 39.2758 12.1451 40.3785 11.4054L52.0587 3.5712C53.1615 2.83159 54.6549 3.12593 55.3946 4.22864L57.7047 7.67283C58.4443 8.77554 58.1499 10.269 57.0472 11.0086L45.3669 18.8429C44.2642 19.5825 42.7707 19.2882 42.0311 18.1854L39.721 14.7413Z" fill="white"/>
<path d="M66.1124 100.131C65.8292 98.8333 66.6512 97.5521 67.9484 97.2689L81.6891 94.269C82.9863 93.9858 84.2675 94.8078 84.5507 96.1051L85.4353 100.157C85.7185 101.454 84.8965 102.735 83.5992 103.018L69.8586 106.018C68.5614 106.302 67.2802 105.48 66.997 104.182L66.1124 100.131Z" fill="white"/>
<path d="M79.9582 61.5774C78.9673 62.4612 77.4476 62.3745 76.5637 61.3836L67.2017 50.888C66.3179 49.8971 66.4047 48.3774 67.3955 47.4935L70.4904 44.733C71.4813 43.8491 73.001 43.9359 73.8848 44.9267L83.2468 55.4224C84.1307 56.4132 84.0439 57.933 83.053 58.8168L79.9582 61.5774Z" fill="white"/>
<path d="M14.5934 98.1953C15.902 97.9707 17.145 98.8494 17.3696 100.158L19.7491 114.02C19.9738 115.328 19.095 116.571 17.7864 116.796L13.699 117.497C12.3904 117.722 11.1474 116.843 10.9227 115.535L8.54327 101.673C8.31863 100.365 9.19738 99.1216 10.506 98.897L14.5934 98.1953Z" fill="white"/>
</svg>
